<svg data-v-423bf9ae="" xmlns="http://www.w3.org/2000/svg" viewBox="0 0 513 90" class="iconLeft"><!----><!----><!----><g data-v-423bf9ae="" id="1ca19603-809e-4ad0-9f18-7ba4486064c9" fill="white" transform="matrix(5.61797736755893,0,0,5.61797736755893,91.10372256742033,-6.57303394866161)"><path d="M7.15 4.58L1.81 4.58L1.81 6.30L5.03 6.30L5.03 11.41C5.03 12.36 4.61 12.81 3.89 12.81C3.05 12.81 2.67 12.22 2.52 11.40L0.53 11.80C0.84 13.43 1.89 14.52 3.89 14.52C5.88 14.52 7.18 13.38 7.15 11.62ZM12.60 14.52C14.85 14.52 16.23 13.08 16.23 10.74C16.23 8.40 14.85 6.96 12.60 6.96C10.35 6.96 8.97 8.40 8.97 10.74C8.97 13.08 10.35 14.52 12.60 14.52ZM12.60 12.98C11.68 12.98 11.12 12.38 11.12 11.31L11.12 10.16C11.12 9.10 11.68 8.50 12.60 8.50C13.52 8.50 14.08 9.10 14.08 10.16L14.08 11.31C14.08 12.38 13.52 12.98 12.60 12.98ZM17.63 3.99L17.63 14.35L19.70 14.35L19.70 13.03L19.80 13.03C20.16 13.90 20.78 14.52 21.94 14.52C23.53 14.52 24.65 13.36 24.65 10.74C24.65 8.12 23.53 6.96 21.94 6.96C20.78 6.96 20.16 7.57 19.80 8.44L19.70 8.44L19.70 3.99ZM21.04 12.91C20.31 12.91 19.70 12.56 19.70 11.80L19.70 9.67C19.70 8.92 20.31 8.57 21.04 8.57C21.97 8.57 22.50 9.17 22.50 10.18L22.50 11.30C22.50 12.31 21.97 12.91 21.04 12.91ZM26.32 14.35L28.42 14.35L28.42 10.26L32.34 10.26L32.34 8.54L28.42 8.54L28.42 6.30L32.80 6.30L32.80 4.58L26.32 4.58ZM38.25 6.20C39.17 6.20 39.49 5.77 39.49 5.22L39.49 4.82C39.49 4.26 39.17 3.84 38.25 3.84C37.32 3.84 37.00 4.26 37.00 4.82L37.00 5.22C37.00 5.77 37.32 6.20 38.25 6.20ZM34.92 12.74L34.92 14.35L41.41 14.35L41.41 12.74L39.28 12.74L39.28 7.13L34.92 7.13L34.92 8.74L37.21 8.74L37.21 12.74ZM42.91 14.35L44.98 14.35L44.98 9.60C44.98 8.90 45.61 8.55 46.26 8.55C47.07 8.55 47.47 9.04 47.47 9.95L47.47 14.35L49.55 14.35L49.55 9.67C49.55 7.92 48.58 6.96 47.19 6.96C46.03 6.96 45.39 7.63 45.07 8.44L44.98 8.44L44.98 7.13L42.91 7.13ZM55.90 13.03L55.90 14.35L57.97 14.35L57.97 3.99L55.90 3.99L55.90 8.44L55.80 8.44C55.44 7.57 54.82 6.96 53.66 6.96C52.07 6.96 50.95 8.12 50.95 10.74C50.95 13.36 52.07 14.52 53.66 14.52C54.82 14.52 55.44 13.90 55.80 13.03ZM54.56 12.91C53.63 12.91 53.10 12.31 53.10 11.30L53.10 10.18C53.10 9.17 53.63 8.57 54.56 8.57C55.29 8.57 55.90 8.92 55.90 9.67L55.90 11.80C55.90 12.56 55.29 12.91 54.56 12.91ZM63.20 14.52C64.75 14.52 65.73 13.93 66.29 13.24L65.17 12.03C64.72 12.56 64.12 12.92 63.27 12.92C62.16 12.92 61.56 12.29 61.56 11.37L61.56 11.24L66.50 11.24L66.50 10.63C66.50 8.37 65.17 6.96 63.01 6.96C60.84 6.96 59.50 8.40 59.50 10.77C59.50 13.08 60.77 14.52 63.20 14.52ZM63.03 8.44C63.92 8.44 64.47 9.03 64.47 9.97L64.47 10.08L61.56 10.08L61.56 9.97C61.56 9.04 62.13 8.44 63.03 8.44ZM68.24 12.74L68.24 14.35L74.35 14.35L74.35 12.74L71.97 12.74L71.97 10.25C71.97 9.44 72.60 9.03 73.53 9.03L75.07 9.03L75.07 7.13L74.38 7.13C73.07 7.13 72.38 8.05 72.07 9.00L71.97 9.00L71.97 7.13L68.24 7.13L68.24 8.74L69.90 8.74L69.90 12.74Z"></path></g><!----><g data-v-423bf9ae="" id="0ceb2a25-3c7b-496c-805a-0e3a8b29a708" transform="matrix(2.8125,0,0,2.8125,-7.170000076293945,0)" stroke="none" fill="white"><path d="M2.83 18.247l26.34-9.124L2.83 0zM29.17 32V13.753L2.83 22.877z"></path></g><!----></svg>